<svg xmlns="http://www.w3.org/2000/svg" xmlns:xlink="http://www.w3.org/1999/xlink" width="512" height="512" id="axe">
  <defs>
    <path id="a" d="M0 505.081h368.538V4.297H0z"></path>
  </defs>
  <g fill="none" fill-rule="evenodd">
    <path fill="#B4814A" d="M127.042 490.469h90.809V31.392h-90.809z"></path>
    <path fill="#010202" d="M176.313 490.469h41.538V31.392h-41.538z" opacity=".2"></path>
    <path fill="#EE3634" d="M79.385 100.555V267.44s210.037 3.342 298.554 90.119c0 0 49.215-61.745 49.215-173.561 0-111.817-49.215-173.561-49.215-173.561-88.517 86.784-298.554 90.118-298.554 90.118"></path>
    <path fill="#FEFEFE" d="M377.942 10.437C365.515 22.62 350.63 33.11 334.327 42.222c13.922 28.873 30.523 76.8 30.523 141.776 0 64.975-16.601 112.903-30.523 141.775 16.304 9.112 31.188 19.601 43.615 31.786 0 0 49.215-61.745 49.215-173.561 0-111.817-49.215-173.561-49.215-173.561"></path>
    <g transform="translate(69 2.623)">
      <mask id="b" fill="#fff">
        <use xlink:href="#a"></use>
      </mask>
      <path fill="#2E2E30" d="M138.467 484.324h-70.04V286.32c20.416 2.255 44.605 5.673 70.04 10.883v187.122ZM20.769 114.84c35.46-1.515 153.289-9.818 239.715-53.954 12.282 28.444 24.978 71.37 24.978 127.343 0 55.988-12.696 98.906-24.978 127.35-86.426-44.136-204.256-52.439-239.715-53.954V114.84Zm47.658-68.836h70.04V79.27c-25.435 5.203-49.624 8.628-70.04 10.877V46.004ZM346.55 217.752c-.187 2.304-.464 4.498-.7 6.746-.242 2.387-.45 4.83-.74 7.154-.083.65-.194 1.253-.277 1.896-1.08 8.268-2.395 16.19-3.932 23.67-.118.602-.263 1.155-.388 1.75-.72 3.397-1.46 6.76-2.25 9.991-.097.38-.2.734-.298 1.114-9.297 37.341-22.99 63.17-30.897 75.963-1.052-.893-2.167-1.744-3.247-2.622-1.142-.928-2.257-1.862-3.44-2.782-2.064-1.612-4.196-3.176-6.342-4.725-.166-.118-.332-.243-.498-.36a238.675 238.675 0 0 0-14.823-9.797c13.376-30.381 27.512-76.856 27.512-137.52 0-60.659-14.136-107.133-27.512-137.514a240.4 240.4 0 0 0 14.781-9.763c.222-.16.436-.318.658-.477a231.69 231.69 0 0 0 6.189-4.615c1.294-1.003 2.52-2.027 3.766-3.045.976-.802 2-1.57 2.956-2.387 11.063 17.913 33.417 61.281 39.253 126.035.07.734.167 1.426.229 2.16.152 1.874.228 3.84.36 5.749.512 7.694.858 15.595.858 23.856 0 10.282-.429 20.12-1.218 29.523ZM317.059 8.206a10.366 10.366 0 0 0-7.484-3.896c-3.018-.152-5.815.893-7.913 2.955a155.687 155.687 0 0 1-8.744 7.922c-.124.104-.263.2-.387.304-9.256 7.736-20.056 15.084-32.268 21.913-.014.007-.021.014-.035.02C229.94 54.348 194.17 66.29 159.236 74.662V35.626c0-5.73-4.653-10.379-10.385-10.379H58.042c-5.732 0-10.384 4.65-10.384 10.379V92.18c-22.451 1.91-36.907 2.22-37.44 2.235C4.548 94.506 0 99.12 0 104.794v166.884c0 5.667 4.548 10.282 10.218 10.379.533.007 14.989.318 37.44 2.228v210.418c0 5.729 4.652 10.378 10.384 10.378h90.81c5.731 0 10.384-4.65 10.384-10.378v-192.9c34.94 8.38 70.718 20.321 101.013 37.252.007 0 .007.007.014.007 12.184 6.815 22.95 14.135 32.192 21.85.152.131.318.249.47.373a155.434 155.434 0 0 1 8.737 7.915 10.363 10.363 0 0 0 7.913 2.955 10.359 10.359 0 0 0 7.484-3.889c2.105-2.636 51.48-65.902 51.48-180.037 0-114.127-49.375-177.394-51.48-180.023Z" mask="url(#b)"></path>
    </g>
  </g>
</svg>
